<?xml version="1.0" encoding="UTF-8" standalone="no"?>
<!DOCTYPE svg PUBLIC "-//W3C//DTD SVG 1.1//EN"
 "http://www.w3.org/Graphics/SVG/1.1/DTD/svg11.dtd">
<!-- Generated by graphviz version 2.42.4 (0)
 -->
<!-- Title: G Pages: 1 -->
<svg width="2590pt" height="851pt"
 viewBox="0.00 0.00 2590.40 851.40" xmlns="http://www.w3.org/2000/svg" xmlns:xlink="http://www.w3.org/1999/xlink">
<g id="graph0" class="graph" transform="scale(1 1) rotate(0) translate(25.2 826.2)">
<title>G</title>
<polygon fill="white" stroke="transparent" points="-25.2,25.2 -25.2,-826.2 2565.2,-826.2 2565.2,25.2 -25.2,25.2"/>
<text text-anchor="middle" x="1270" y="-785.8" font-family="Arial" font-size="14.00">FlowForm subject authority + token/link action policy</text>
<g id="clust1" class="cluster">
<title>cluster_public_general</title>
<path fill="white" stroke="#cbd5e1" d="M20,-158C20,-158 878,-158 878,-158 884,-158 890,-164 890,-170 890,-170 890,-534 890,-534 890,-540 884,-546 878,-546 878,-546 20,-546 20,-546 14,-546 8,-540 8,-534 8,-534 8,-170 8,-170 8,-164 14,-158 20,-158"/>
<text text-anchor="middle" x="449" y="-530.8" font-family="Arial" font-size="14.00">Public slug / general link (not assigned)</text>
</g>
<g id="clust2" class="cluster">
<title>cluster_private</title>
<path fill="white" stroke="#cbd5e1" d="M910,-321C910,-321 1430,-321 1430,-321 1436,-321 1442,-327 1442,-333 1442,-333 1442,-534 1442,-534 1442,-540 1436,-546 1430,-546 1430,-546 910,-546 910,-546 904,-546 898,-540 898,-534 898,-534 898,-333 898,-333 898,-327 904,-321 910,-321"/>
<text text-anchor="middle" x="1170" y="-530.8" font-family="Arial" font-size="14.00">Private link (assigned subject)</text>
</g>
<g id="clust3" class="cluster">
<title>cluster_auth_link</title>
<path fill="white" stroke="#cbd5e1" d="M1462,-8C1462,-8 1982,-8 1982,-8 1988,-8 1994,-14 1994,-20 1994,-20 1994,-534 1994,-534 1994,-540 1988,-546 1982,-546 1982,-546 1462,-546 1462,-546 1456,-546 1450,-540 1450,-534 1450,-534 1450,-20 1450,-20 1450,-14 1456,-8 1462,-8"/>
<text text-anchor="middle" x="1722" y="-530.8" font-family="Arial" font-size="14.00">Authenticated assigned link</text>
</g>
<g id="clust4" class="cluster">
<title>cluster_account_linking</title>
<path fill="white" stroke="#cbd5e1" d="M2014,-321C2014,-321 2520,-321 2520,-321 2526,-321 2532,-327 2532,-333 2532,-333 2532,-534 2532,-534 2532,-540 2526,-546 2520,-546 2520,-546 2014,-546 2014,-546 2008,-546 2002,-540 2002,-534 2002,-534 2002,-333 2002,-333 2002,-327 2008,-321 2014,-321"/>
<text text-anchor="middle" x="2267" y="-530.8" font-family="Arial" font-size="14.00">Authenticated account&#45;linking</text>
</g>
<!-- start&#45;&gt;entry -->
<g id="edge1" class="edge">
<title>start&#45;&gt;entry</title>
<path fill="none" stroke="#6b7280" d="M1401,-707.93C1401,-707.93 1401,-632.74 1401,-632.74"/>
<polygon fill="#6b7280" stroke="#6b7280" points="1403.63,-632.74 1401,-625.24 1398.38,-632.74 1403.63,-632.74"/>
</g>
<!-- entry&#45;&gt;pg_auth -->
<g id="edge18" class="edge">
<title>entry&#45;&gt;pg_auth</title>
<path fill="none" stroke="#6b7280" d="M1323.24,-607C1132.71,-607 658,-607 658,-607 658,-607 658,-522.66 658,-522.66"/>
<polygon fill="#6b7280" stroke="#6b7280" points="660.63,-522.66 658,-515.16 655.38,-522.66 660.63,-522.66"/>
<text text-anchor="middle" x="1021" y="-557" font-family="Arial" font-size="10.00">public slug / general link</text>
</g>
<!-- entry&#45;&gt;pv_token -->
<g id="edge19" class="edge">
<title>entry&#45;&gt;pv_token</title>
<path fill="none" stroke="#6b7280" d="M1370.63,-595.64C1370.63,-595.64 1370.63,-511.73 1370.63,-511.73"/>
<polygon fill="#6b7280" stroke="#6b7280" points="1373.25,-511.73 1370.63,-504.23 1368,-511.73 1373.25,-511.73"/>
<text text-anchor="middle" x="1383" y="-557" font-family="Arial" font-size="10.00">private link</text>
</g>
<!-- entry&#45;&gt;al_login -->
<g id="edge20" class="edge">
<title>entry&#45;&gt;al_login</title>
<path fill="none" stroke="#6b7280" d="M1472.23,-605.45C1472.23,-592.08 1472.23,-497 1472.23,-497 1472.23,-497 1540.71,-497 1540.71,-497"/>
<polygon fill="#6b7280" stroke="#6b7280" points="1540.71,-499.63 1548.21,-497 1540.71,-494.38 1540.71,-499.63"/>
<text text-anchor="middle" x="1603.5" y="-557" font-family="Arial" font-size="10.00">authenticated link</text>
</g>
<!-- entry&#45;&gt;ac_match -->
<g id="edge21" class="edge">
<title>entry&#45;&gt;ac_match</title>
<path fill="none" stroke="#6b7280" d="M1479,-607C1691.86,-607 2267,-607 2267,-607 2267,-607 2267,-522.66 2267,-522.66"/>
<polygon fill="#6b7280" stroke="#6b7280" points="2269.63,-522.66 2267,-515.16 2264.38,-522.66 2269.63,-522.66"/>
<text text-anchor="middle" x="2036" y="-557" font-family="Arial" font-size="10.00">account&#45;linking</text>
</g>
<!-- pg_auth&#45;&gt;pg_token_no -->
<g id="edge2" class="edge">
<title>pg_auth&#45;&gt;pg_token_no</title>
<path fill="none" stroke="#6b7280" d="M580.02,-497C470.93,-497 286,-497 286,-497 286,-497 286,-400.08 286,-400.08"/>
<polygon fill="#6b7280" stroke="#6b7280" points="288.63,-400.08 286,-392.58 283.38,-400.08 288.63,-400.08"/>
<text text-anchor="middle" x="453.5" y="-447" font-family="Arial" font-size="10.00">no</text>
</g>
<!-- pg_auth&#45;&gt;pg_token_yes -->
<g id="edge5" class="edge">
<title>pg_auth&#45;&gt;pg_token_yes</title>
<path fill="none" stroke="#6b7280" d="M658,-478.92C658,-478.92 658,-400.15 658,-400.15"/>
<polygon fill="#6b7280" stroke="#6b7280" points="660.63,-400.15 658,-392.65 655.38,-400.15 660.63,-400.15"/>
<text text-anchor="middle" x="666" y="-447" font-family="Arial" font-size="10.00">yes</text>
</g>
<!-- pg_token_no&#45;&gt;pg_anon_none -->
<g id="edge3" class="edge">
<title>pg_token_no&#45;&gt;pg_anon_none</title>
<path fill="none" stroke="#6b7280" d="M170.3,-373.8C170.3,-373.8 170.3,-271.01 170.3,-271.01"/>
<polygon fill="#6b7280" stroke="#6b7280" points="172.93,-271.01 170.3,-263.51 167.68,-271.01 172.93,-271.01"/>
<text text-anchor="middle" x="172" y="-297" font-family="Arial" font-size="10.00">none</text>
</g>
<!-- pg_token_no&#45;&gt;pg_anon_token -->
<g id="edge4" class="edge">
<title>pg_token_no&#45;&gt;pg_anon_token</title>
<path fill="none" stroke="#6b7280" d="M286,-356.24C286,-356.24 286,-271.02 286,-271.02"/>
<polygon fill="#6b7280" stroke="#6b7280" points="288.63,-271.02 286,-263.52 283.38,-271.02 288.63,-271.02"/>
<text text-anchor="middle" x="318.5" y="-297" font-family="Arial" font-size="10.00">valid canonical</text>
</g>
<!-- pg_token_yes&#45;&gt;pg_user_none -->
<g id="edge6" class="edge">
<title>pg_token_yes&#45;&gt;pg_user_none</title>
<path fill="none" stroke="#6b7280" d="M573.05,-368.93C573.05,-368.93 573.05,-277.88 573.05,-277.88"/>
<polygon fill="#6b7280" stroke="#6b7280" points="575.68,-277.88 573.05,-270.38 570.43,-277.88 575.68,-277.88"/>
<text text-anchor="middle" x="562" y="-297" font-family="Arial" font-size="10.00">none</text>
</g>
<!-- pg_token_yes&#45;&gt;pg_user_diff -->
<g id="edge7" class="edge">
<title>pg_token_yes&#45;&gt;pg_user_diff</title>
<path fill="none" stroke="#6b7280" d="M708.95,-363.74C708.95,-363.74 708.95,-271.22 708.95,-271.22"/>
<polygon fill="#6b7280" stroke="#6b7280" points="711.57,-271.22 708.95,-263.72 706.32,-271.22 711.57,-271.22"/>
<text text-anchor="middle" x="762" y="-297" font-family="Arial" font-size="10.00">valid, different canonical</text>
</g>
<!-- pv_token&#45;&gt;pv_none -->
<g id="edge8" class="edge">
<title>pv_token&#45;&gt;pv_none</title>
<path fill="none" stroke="#6b7280" d="M1178.04,-497C1102.04,-497 1018,-497 1018,-497 1018,-497 1018,-427.61 1018,-427.61"/>
<polygon fill="#6b7280" stroke="#6b7280" points="1020.63,-427.61 1018,-420.11 1015.38,-427.61 1020.63,-427.61"/>
<text text-anchor="middle" x="1139" y="-447" font-family="Arial" font-size="10.00">none</text>
</g>
<!-- pv_token&#45;&gt;pv_diff -->
<g id="edge9" class="edge">
<title>pv_token&#45;&gt;pv_diff</title>
<path fill="none" stroke="#6b7280" d="M1298,-478.92C1298,-478.92 1298,-427.68 1298,-427.68"/>
<polygon fill="#6b7280" stroke="#6b7280" points="1300.63,-427.68 1298,-420.18 1295.38,-427.68 1300.63,-427.68"/>
<text text-anchor="middle" x="1351" y="-447" font-family="Arial" font-size="10.00">valid, different canonical</text>
</g>
<!-- al_login&#45;&gt;al_match -->
<g id="edge11" class="edge">
<title>al_login&#45;&gt;al_match</title>
<path fill="none" stroke="#6b7280" d="M1626,-478.92C1626,-478.92 1626,-400.15 1626,-400.15"/>
<polygon fill="#6b7280" stroke="#6b7280" points="1628.63,-400.15 1626,-392.65 1623.38,-400.15 1628.63,-400.15"/>
<text text-anchor="middle" x="1634" y="-447" font-family="Arial" font-size="10.00">yes</text>
</g>
<!-- al_login&#45;&gt;al_reject_login -->
<g id="edge10" class="edge">
<title>al_login&#45;&gt;al_reject_login</title>
<path fill="none" stroke="#6b7280" d="M1703.76,-497C1779.72,-497 1884,-497 1884,-497 1884,-497 1884,-421.1 1884,-421.1"/>
<polygon fill="#6b7280" stroke="#6b7280" points="1886.63,-421.1 1884,-413.6 1881.38,-421.1 1886.63,-421.1"/>
<text text-anchor="middle" x="1786.5" y="-447" font-family="Arial" font-size="10.00">no</text>
</g>
<!-- al_match&#45;&gt;al_token -->
<g id="edge13" class="edge">
<title>al_match&#45;&gt;al_token</title>
<path fill="none" stroke="#6b7280" d="M1602,-358.92C1602,-358.92 1602,-243.89 1602,-243.89"/>
<polygon fill="#6b7280" stroke="#6b7280" points="1604.63,-243.89 1602,-236.39 1599.38,-243.89 1604.63,-243.89"/>
<text text-anchor="middle" x="1622" y="-297" font-family="Arial" font-size="10.00">yes</text>
</g>
<!-- al_match&#45;&gt;al_reject_match -->
<g id="edge12" class="edge">
<title>al_match&#45;&gt;al_reject_match</title>
<path fill="none" stroke="#6b7280" d="M1769.84,-372.52C1769.84,-372.52 1769.84,-264.63 1769.84,-264.63"/>
<polygon fill="#6b7280" stroke="#6b7280" points="1772.47,-264.63 1769.84,-257.13 1767.22,-264.63 1772.47,-264.63"/>
<text text-anchor="middle" x="1754.5" y="-297" font-family="Arial" font-size="10.00">no</text>
</g>
<!-- al_token&#45;&gt;al_none -->
<g id="edge14" class="edge">
<title>al_token&#45;&gt;al_none</title>
<path fill="none" stroke="#6b7280" d="M1582.05,-202.99C1582.05,-202.99 1582.05,-114.58 1582.05,-114.58"/>
<polygon fill="#6b7280" stroke="#6b7280" points="1584.68,-114.58 1582.05,-107.08 1579.43,-114.58 1584.68,-114.58"/>
<text text-anchor="middle" x="1597" y="-134" font-family="Arial" font-size="10.00">none</text>
</g>
<!-- al_token&#45;&gt;al_diff -->
<g id="edge15" class="edge">
<title>al_token&#45;&gt;al_diff</title>
<path fill="none" stroke="#6b7280" d="M1718.2,-217.3C1718.2,-217.3 1718.2,-114.51 1718.2,-114.51"/>
<polygon fill="#6b7280" stroke="#6b7280" points="1720.82,-114.51 1718.2,-107.01 1715.57,-114.51 1720.82,-114.51"/>
<text text-anchor="middle" x="1808" y="-134" font-family="Arial" font-size="10.00">valid, different canonical</text>
</g>
<!-- ac_match&#45;&gt;ac_diff -->
<g id="edge16" class="edge">
<title>ac_match&#45;&gt;ac_diff</title>
<path fill="none" stroke="#6b7280" d="M2163,-486.13C2163,-486.13 2163,-427.71 2163,-427.71"/>
<polygon fill="#6b7280" stroke="#6b7280" points="2165.63,-427.71 2163,-420.21 2160.38,-427.71 2165.63,-427.71"/>
<text text-anchor="middle" x="2255.5" y="-447" font-family="Arial" font-size="10.00">yes + valid different canonical token</text>
</g>
<!-- ac_match&#45;&gt;ac_reject -->
<g id="edge17" class="edge">
<title>ac_match&#45;&gt;ac_reject</title>
<path fill="none" stroke="#6b7280" d="M2415,-489.34C2415,-489.34 2415,-408.15 2415,-408.15"/>
<polygon fill="#6b7280" stroke="#6b7280" points="2417.63,-408.15 2415,-400.65 2412.38,-408.15 2417.63,-408.15"/>
<text text-anchor="middle" x="2421.5" y="-447" font-family="Arial" font-size="10.00">otherwise</text>
</g>
<!-- start -->
<g id="node1" class="node">
<title>start</title>
<ellipse fill="#e0f2fe" stroke="#0284c7" cx="1401" cy="-726" rx="109.58" ry="18"/>
<text text-anchor="middle" x="1401" y="-722.9" font-family="Arial" font-size="12.00">Respondent enters survey</text>
</g>
<!-- entry -->
<g id="node2" class="node">
<title>entry</title>
<path fill="#fef3c7" stroke="#d97706" d="M1389.31,-622.29C1389.31,-622.29 1334.92,-609.71 1334.92,-609.71 1329.08,-608.35 1329.08,-605.65 1334.92,-604.29 1334.92,-604.29 1389.31,-591.71 1389.31,-591.71 1395.15,-590.35 1406.85,-590.35 1412.69,-591.71 1412.69,-591.71 1467.08,-604.29 1467.08,-604.29 1472.92,-605.65 1472.92,-608.35 1467.08,-609.71 1467.08,-609.71 1412.69,-622.29 1412.69,-622.29 1406.85,-623.65 1395.15,-623.65 1389.31,-622.29"/>
<text text-anchor="middle" x="1401" y="-603.9" font-family="Arial" font-size="12.00">Entry type?</text>
</g>
<!-- pg_auth -->
<g id="node3" class="node">
<title>pg_auth</title>
<path fill="#fef3c7" stroke="#d97706" d="M646.31,-512.29C646.31,-512.29 591.92,-499.71 591.92,-499.71 586.08,-498.35 586.08,-495.65 591.92,-494.29 591.92,-494.29 646.31,-481.71 646.31,-481.71 652.15,-480.35 663.85,-480.35 669.69,-481.71 669.69,-481.71 724.08,-494.29 724.08,-494.29 729.92,-495.65 729.92,-498.35 724.08,-499.71 724.08,-499.71 669.69,-512.29 669.69,-512.29 663.85,-513.65 652.15,-513.65 646.31,-512.29"/>
<text text-anchor="middle" x="658" y="-493.9" font-family="Arial" font-size="12.00">Logged in?</text>
</g>
<!-- pg_token_no -->
<g id="node4" class="node">
<title>pg_token_no</title>
<path fill="#fef3c7" stroke="#d97706" d="M274.13,-390.72C274.13,-390.72 178.08,-376.28 178.08,-376.28 172.15,-375.39 172.15,-373.61 178.08,-372.72 178.08,-372.72 274.13,-358.28 274.13,-358.28 280.07,-357.39 291.93,-357.39 297.87,-358.28 297.87,-358.28 393.92,-372.72 393.92,-372.72 399.85,-373.61 399.85,-375.39 393.92,-376.28 393.92,-376.28 297.87,-390.72 297.87,-390.72 291.93,-391.61 280.07,-391.61 274.13,-390.72"/>
<text text-anchor="middle" x="286" y="-371.4" font-family="Arial" font-size="12.00">Recognition token?</text>
</g>
<!-- pg_token_yes -->
<g id="node5" class="node">
<title>pg_token_yes</title>
<path fill="#fef3c7" stroke="#d97706" d="M646.13,-390.72C646.13,-390.72 550.08,-376.28 550.08,-376.28 544.15,-375.39 544.15,-373.61 550.08,-372.72 550.08,-372.72 646.13,-358.28 646.13,-358.28 652.07,-357.39 663.93,-357.39 669.87,-358.28 669.87,-358.28 765.92,-372.72 765.92,-372.72 771.85,-373.61 771.85,-375.39 765.92,-376.28 765.92,-376.28 669.87,-390.72 669.87,-390.72 663.93,-391.61 652.07,-391.61 646.13,-390.72"/>
<text text-anchor="middle" x="658" y="-371.4" font-family="Arial" font-size="12.00">Recognition token?</text>
</g>
<!-- pg_anon_none -->
<g id="node6" class="node">
<title>pg_anon_none</title>
<path fill="#ecfdf5" stroke="#059669" d="M162.5,-263.5C162.5,-263.5 27.5,-263.5 27.5,-263.5 21.5,-263.5 15.5,-257.5 15.5,-251.5 15.5,-251.5 15.5,-184.5 15.5,-184.5 15.5,-178.5 21.5,-172.5 27.5,-172.5 27.5,-172.5 162.5,-172.5 162.5,-172.5 168.5,-172.5 174.5,-178.5 174.5,-184.5 174.5,-184.5 174.5,-251.5 174.5,-251.5 174.5,-257.5 168.5,-263.5 162.5,-263.5"/>
<text text-anchor="middle" x="95" y="-247.9" font-family="Arial" font-size="12.00">Final subject</text>
<text text-anchor="middle" x="95" y="-234.9" font-family="Arial" font-size="12.00">new anonymous subject</text>
<text text-anchor="middle" x="95" y="-207.9" font-family="Arial" font-size="12.00">Token: issue</text>
<text text-anchor="middle" x="95" y="-194.9" font-family="Arial" font-size="12.00">Link consumed: no</text>
<text text-anchor="middle" x="95" y="-181.9" font-family="Arial" font-size="12.00">Tx: session + token effects</text>
</g>
<!-- pg_anon_token -->
<g id="node7" class="node">
<title>pg_anon_token</title>
<path fill="#ecfdf5" stroke="#059669" d="M353.5,-263.5C353.5,-263.5 218.5,-263.5 218.5,-263.5 212.5,-263.5 206.5,-257.5 206.5,-251.5 206.5,-251.5 206.5,-184.5 206.5,-184.5 206.5,-178.5 212.5,-172.5 218.5,-172.5 218.5,-172.5 353.5,-172.5 353.5,-172.5 359.5,-172.5 365.5,-178.5 365.5,-184.5 365.5,-184.5 365.5,-251.5 365.5,-251.5 365.5,-257.5 359.5,-263.5 353.5,-263.5"/>
<text text-anchor="middle" x="286" y="-247.9" font-family="Arial" font-size="12.00">Final subject</text>
<text text-anchor="middle" x="286" y="-234.9" font-family="Arial" font-size="12.00">token subject</text>
<text text-anchor="middle" x="286" y="-207.9" font-family="Arial" font-size="12.00">Token: mark used / keep</text>
<text text-anchor="middle" x="286" y="-194.9" font-family="Arial" font-size="12.00">Link consumed: no</text>
<text text-anchor="middle" x="286" y="-181.9" font-family="Arial" font-size="12.00">Tx: session + token effects</text>
</g>
<!-- pg_user_none -->
<g id="node8" class="node">
<title>pg_user_none</title>
<path fill="#eef2ff" stroke="#4f46e5" d="M596,-270C596,-270 410,-270 410,-270 404,-270 398,-264 398,-258 398,-258 398,-178 398,-178 398,-172 404,-166 410,-166 410,-166 596,-166 596,-166 602,-166 608,-172 608,-178 608,-178 608,-258 608,-258 608,-264 602,-270 596,-270"/>
<text text-anchor="middle" x="503" y="-254.4" font-family="Arial" font-size="12.00">Final subject</text>
<text text-anchor="middle" x="503" y="-241.4" font-family="Arial" font-size="12.00">logged&#45;in identity</text>
<text text-anchor="middle" x="503" y="-228.4" font-family="Arial" font-size="12.00">or new user subject</text>
<text text-anchor="middle" x="503" y="-201.4" font-family="Arial" font-size="12.00">Token: issue</text>
<text text-anchor="middle" x="503" y="-188.4" font-family="Arial" font-size="12.00">Link consumed: no</text>
<text text-anchor="middle" x="503" y="-175.4" font-family="Arial" font-size="12.00">Tx: identity + session + token effects</text>
</g>
<!-- pg_user_diff -->
<g id="node9" class="node">
<title>pg_user_diff</title>
<path fill="#f5f3ff" stroke="#7c3aed" d="M870,-263.5C870,-263.5 652,-263.5 652,-263.5 646,-263.5 640,-257.5 640,-251.5 640,-251.5 640,-184.5 640,-184.5 640,-178.5 646,-172.5 652,-172.5 652,-172.5 870,-172.5 870,-172.5 876,-172.5 882,-178.5 882,-184.5 882,-184.5 882,-251.5 882,-251.5 882,-257.5 876,-263.5 870,-263.5"/>
<text text-anchor="middle" x="761" y="-247.9" font-family="Arial" font-size="12.00">Final subject</text>
<text text-anchor="middle" x="761" y="-234.9" font-family="Arial" font-size="12.00">logged&#45;in identity subject</text>
<text text-anchor="middle" x="761" y="-207.9" font-family="Arial" font-size="12.00">Token: merge weaker token subject, rotate</text>
<text text-anchor="middle" x="761" y="-194.9" font-family="Arial" font-size="12.00">Link consumed: no</text>
<text text-anchor="middle" x="761" y="-181.9" font-family="Arial" font-size="12.00">Tx: merge + session + token effects</text>
</g>
<!-- pv_token -->
<g id="node10" class="node">
<title>pv_token</title>
<path fill="#fef3c7" stroke="#d97706" d="M1286.13,-513.22C1286.13,-513.22 1190.08,-498.78 1190.08,-498.78 1184.15,-497.89 1184.15,-496.11 1190.08,-495.22 1190.08,-495.22 1286.13,-480.78 1286.13,-480.78 1292.07,-479.89 1303.93,-479.89 1309.87,-480.78 1309.87,-480.78 1405.92,-495.22 1405.92,-495.22 1411.85,-496.11 1411.85,-497.89 1405.92,-498.78 1405.92,-498.78 1309.87,-513.22 1309.87,-513.22 1303.93,-514.11 1292.07,-514.11 1286.13,-513.22"/>
<text text-anchor="middle" x="1298" y="-493.9" font-family="Arial" font-size="12.00">Recognition token?</text>
</g>
<!-- pv_none -->
<g id="node11" class="node">
<title>pv_none</title>
<path fill="#eef2ff" stroke="#4f46e5" d="M1118,-420C1118,-420 918,-420 918,-420 912,-420 906,-414 906,-408 906,-408 906,-341 906,-341 906,-335 912,-329 918,-329 918,-329 1118,-329 1118,-329 1124,-329 1130,-335 1130,-341 1130,-341 1130,-408 1130,-408 1130,-414 1124,-420 1118,-420"/>
<text text-anchor="middle" x="1018" y="-404.4" font-family="Arial" font-size="12.00">Final subject</text>
<text text-anchor="middle" x="1018" y="-391.4" font-family="Arial" font-size="12.00">assigned subject</text>
<text text-anchor="middle" x="1018" y="-364.4" font-family="Arial" font-size="12.00">Token: issue if needed</text>
<text text-anchor="middle" x="1018" y="-351.4" font-family="Arial" font-size="12.00">Link consumed: yes, on session start</text>
<text text-anchor="middle" x="1018" y="-338.4" font-family="Arial" font-size="12.00">Tx: session + token + link consumption</text>
</g>
<!-- pv_diff -->
<g id="node12" class="node">
<title>pv_diff</title>
<path fill="#f5f3ff" stroke="#7c3aed" d="M1421.5,-420C1421.5,-420 1174.5,-420 1174.5,-420 1168.5,-420 1162.5,-414 1162.5,-408 1162.5,-408 1162.5,-341 1162.5,-341 1162.5,-335 1168.5,-329 1174.5,-329 1174.5,-329 1421.5,-329 1421.5,-329 1427.5,-329 1433.5,-335 1433.5,-341 1433.5,-341 1433.5,-408 1433.5,-408 1433.5,-414 1427.5,-420 1421.5,-420"/>
<text text-anchor="middle" x="1298" y="-404.4" font-family="Arial" font-size="12.00">Final subject</text>
<text text-anchor="middle" x="1298" y="-391.4" font-family="Arial" font-size="12.00">assigned subject</text>
<text text-anchor="middle" x="1298" y="-364.4" font-family="Arial" font-size="12.00">Token: merge weaker token subject, rotate</text>
<text text-anchor="middle" x="1298" y="-351.4" font-family="Arial" font-size="12.00">Link consumed: yes, on session start</text>
<text text-anchor="middle" x="1298" y="-338.4" font-family="Arial" font-size="12.00">Tx: merge + session + token + link consumption</text>
</g>
<!-- al_login -->
<g id="node13" class="node">
<title>al_login</title>
<path fill="#fef3c7" stroke="#d97706" d="M1614.31,-512.29C1614.31,-512.29 1559.92,-499.71 1559.92,-499.71 1554.08,-498.35 1554.08,-495.65 1559.92,-494.29 1559.92,-494.29 1614.31,-481.71 1614.31,-481.71 1620.15,-480.35 1631.85,-480.35 1637.69,-481.71 1637.69,-481.71 1692.08,-494.29 1692.08,-494.29 1697.92,-495.65 1697.92,-498.35 1692.08,-499.71 1692.08,-499.71 1637.69,-512.29 1637.69,-512.29 1631.85,-513.65 1620.15,-513.65 1614.31,-512.29"/>
<text text-anchor="middle" x="1626" y="-493.9" font-family="Arial" font-size="12.00">Logged in?</text>
</g>
<!-- al_match -->
<g id="node14" class="node">
<title>al_match</title>
<path fill="#fef3c7" stroke="#d97706" d="M1614.07,-391.16C1614.07,-391.16 1477.56,-375.84 1477.56,-375.84 1471.6,-375.17 1471.6,-373.83 1477.56,-373.16 1477.56,-373.16 1614.07,-357.84 1614.07,-357.84 1620.04,-357.17 1631.96,-357.17 1637.93,-357.84 1637.93,-357.84 1774.44,-373.16 1774.44,-373.16 1780.4,-373.83 1780.4,-375.17 1774.44,-375.84 1774.44,-375.84 1637.93,-391.16 1637.93,-391.16 1631.96,-391.83 1620.04,-391.83 1614.07,-391.16"/>
<text text-anchor="middle" x="1626" y="-371.4" font-family="Arial" font-size="12.00">Matches assigned identity?</text>
</g>
<!-- al_token -->
<g id="node15" class="node">
<title>al_token</title>
<path fill="#fef3c7" stroke="#d97706" d="M1590.13,-234.22C1590.13,-234.22 1494.08,-219.78 1494.08,-219.78 1488.15,-218.89 1488.15,-217.11 1494.08,-216.22 1494.08,-216.22 1590.13,-201.78 1590.13,-201.78 1596.07,-200.89 1607.93,-200.89 1613.87,-201.78 1613.87,-201.78 1709.92,-216.22 1709.92,-216.22 1715.85,-217.11 1715.85,-218.89 1709.92,-219.78 1709.92,-219.78 1613.87,-234.22 1613.87,-234.22 1607.93,-235.11 1596.07,-235.11 1590.13,-234.22"/>
<text text-anchor="middle" x="1602" y="-214.9" font-family="Arial" font-size="12.00">Recognition token?</text>
</g>
<!-- al_reject_login -->
<g id="node16" class="node">
<title>al_reject_login</title>
<path fill="#fef2f2" stroke="#dc2626" d="M1937.5,-413.5C1937.5,-413.5 1830.5,-413.5 1830.5,-413.5 1824.5,-413.5 1818.5,-407.5 1818.5,-401.5 1818.5,-401.5 1818.5,-347.5 1818.5,-347.5 1818.5,-341.5 1824.5,-335.5 1830.5,-335.5 1830.5,-335.5 1937.5,-335.5 1937.5,-335.5 1943.5,-335.5 1949.5,-341.5 1949.5,-347.5 1949.5,-347.5 1949.5,-401.5 1949.5,-401.5 1949.5,-407.5 1943.5,-413.5 1937.5,-413.5"/>
<text text-anchor="middle" x="1884" y="-397.9" font-family="Arial" font-size="12.00">Reject access</text>
<text text-anchor="middle" x="1884" y="-370.9" font-family="Arial" font-size="12.00">No subject resolution</text>
<text text-anchor="middle" x="1884" y="-357.9" font-family="Arial" font-size="12.00">Token: none</text>
<text text-anchor="middle" x="1884" y="-344.9" font-family="Arial" font-size="12.00">Link consumed: no</text>
</g>
<!-- al_reject_match -->
<g id="node17" class="node">
<title>al_reject_match</title>
<path fill="#fef2f2" stroke="#dc2626" d="M1872.5,-257C1872.5,-257 1765.5,-257 1765.5,-257 1759.5,-257 1753.5,-251 1753.5,-245 1753.5,-245 1753.5,-191 1753.5,-191 1753.5,-185 1759.5,-179 1765.5,-179 1765.5,-179 1872.5,-179 1872.5,-179 1878.5,-179 1884.5,-185 1884.5,-191 1884.5,-191 1884.5,-245 1884.5,-245 1884.5,-251 1878.5,-257 1872.5,-257"/>
<text text-anchor="middle" x="1819" y="-241.4" font-family="Arial" font-size="12.00">Reject access</text>
<text text-anchor="middle" x="1819" y="-214.4" font-family="Arial" font-size="12.00">No subject resolution</text>
<text text-anchor="middle" x="1819" y="-201.4" font-family="Arial" font-size="12.00">Token: none</text>
<text text-anchor="middle" x="1819" y="-188.4" font-family="Arial" font-size="12.00">Link consumed: no</text>
</g>
<!-- al_none -->
<g id="node18" class="node">
<title>al_none</title>
<path fill="#eef2ff" stroke="#4f46e5" d="M1670,-107C1670,-107 1470,-107 1470,-107 1464,-107 1458,-101 1458,-95 1458,-95 1458,-28 1458,-28 1458,-22 1464,-16 1470,-16 1470,-16 1670,-16 1670,-16 1676,-16 1682,-22 1682,-28 1682,-28 1682,-95 1682,-95 1682,-101 1676,-107 1670,-107"/>
<text text-anchor="middle" x="1570" y="-91.4" font-family="Arial" font-size="12.00">Final subject</text>
<text text-anchor="middle" x="1570" y="-78.4" font-family="Arial" font-size="12.00">assigned subject</text>
<text text-anchor="middle" x="1570" y="-51.4" font-family="Arial" font-size="12.00">Token: issue if needed</text>
<text text-anchor="middle" x="1570" y="-38.4" font-family="Arial" font-size="12.00">Link consumed: yes, on session start</text>
<text text-anchor="middle" x="1570" y="-25.4" font-family="Arial" font-size="12.00">Tx: session + token + link consumption</text>
</g>
<!-- al_diff -->
<g id="node19" class="node">
<title>al_diff</title>
<path fill="#f5f3ff" stroke="#7c3aed" d="M1973.5,-107C1973.5,-107 1726.5,-107 1726.5,-107 1720.5,-107 1714.5,-101 1714.5,-95 1714.5,-95 1714.5,-28 1714.5,-28 1714.5,-22 1720.5,-16 1726.5,-16 1726.5,-16 1973.5,-16 1973.5,-16 1979.5,-16 1985.5,-22 1985.5,-28 1985.5,-28 1985.5,-95 1985.5,-95 1985.5,-101 1979.5,-107 1973.5,-107"/>
<text text-anchor="middle" x="1850" y="-91.4" font-family="Arial" font-size="12.00">Final subject</text>
<text text-anchor="middle" x="1850" y="-78.4" font-family="Arial" font-size="12.00">assigned subject</text>
<text text-anchor="middle" x="1850" y="-51.4" font-family="Arial" font-size="12.00">Token: merge weaker token subject, rotate</text>
<text text-anchor="middle" x="1850" y="-38.4" font-family="Arial" font-size="12.00">Link consumed: yes, on session start</text>
<text text-anchor="middle" x="1850" y="-25.4" font-family="Arial" font-size="12.00">Tx: merge + session + token + link consumption</text>
</g>
<!-- ac_match -->
<g id="node20" class="node">
<title>ac_match</title>
<path fill="#fef3c7" stroke="#d97706" d="M2255.03,-514.16C2255.03,-514.16 2021.53,-497.84 2021.53,-497.84 2015.54,-497.42 2015.54,-496.58 2021.53,-496.16 2021.53,-496.16 2255.03,-479.84 2255.03,-479.84 2261.01,-479.42 2272.99,-479.42 2278.97,-479.84 2278.97,-479.84 2512.47,-496.16 2512.47,-496.16 2518.46,-496.58 2518.46,-497.42 2512.47,-497.84 2512.47,-497.84 2278.97,-514.16 2278.97,-514.16 2272.99,-514.58 2261.01,-514.58 2255.03,-514.16"/>
<text text-anchor="middle" x="2267" y="-493.9" font-family="Arial" font-size="12.00">Logged in + email matches assigned identity?</text>
</g>
<!-- ac_diff -->
<g id="node21" class="node">
<title>ac_diff</title>
<path fill="#f5f3ff" stroke="#7c3aed" d="M2282.5,-420C2282.5,-420 2043.5,-420 2043.5,-420 2037.5,-420 2031.5,-414 2031.5,-408 2031.5,-408 2031.5,-341 2031.5,-341 2031.5,-335 2037.5,-329 2043.5,-329 2043.5,-329 2282.5,-329 2282.5,-329 2288.5,-329 2294.5,-335 2294.5,-341 2294.5,-341 2294.5,-408 2294.5,-408 2294.5,-414 2288.5,-420 2282.5,-420"/>
<text text-anchor="middle" x="2163" y="-404.4" font-family="Arial" font-size="12.00">Final subject</text>
<text text-anchor="middle" x="2163" y="-391.4" font-family="Arial" font-size="12.00">assigned subject</text>
<text text-anchor="middle" x="2163" y="-364.4" font-family="Arial" font-size="12.00">Token: merge weaker token subject, rotate</text>
<text text-anchor="middle" x="2163" y="-351.4" font-family="Arial" font-size="12.00">Link consumed: no</text>
<text text-anchor="middle" x="2163" y="-338.4" font-family="Arial" font-size="12.00">Tx: identity + token effects commit consistently</text>
</g>
<!-- ac_reject -->
<g id="node22" class="node">
<title>ac_reject</title>
<path fill="#fef2f2" stroke="#dc2626" d="M2491,-400.5C2491,-400.5 2339,-400.5 2339,-400.5 2333,-400.5 2327,-394.5 2327,-388.5 2327,-388.5 2327,-360.5 2327,-360.5 2327,-354.5 2333,-348.5 2339,-348.5 2339,-348.5 2491,-348.5 2491,-348.5 2497,-348.5 2503,-354.5 2503,-360.5 2503,-360.5 2503,-388.5 2503,-388.5 2503,-394.5 2497,-400.5 2491,-400.5"/>
<text text-anchor="middle" x="2415" y="-384.9" font-family="Arial" font-size="12.00">Not covered by target row</text>
<text text-anchor="middle" x="2415" y="-357.9" font-family="Arial" font-size="12.00">Reject or defer to stricter docs</text>
</g>
<!-- legend -->
<g id="node23" class="node">
<title>legend</title>
<polygon fill="#f8fafc" stroke="#64748b" points="1979,-778 1543,-778 1543,-674 1985,-674 1985,-772 1979,-778"/>
<polyline fill="none" stroke="#64748b" points="1979,-778 1979,-772 "/>
<polyline fill="none" stroke="#64748b" points="1985,-772 1979,-772 "/>
<text text-anchor="middle" x="1764" y="-762.4" font-family="Arial" font-size="12.00">Legend</text>
<text text-anchor="middle" x="1764" y="-749.4" font-family="Arial" font-size="12.00">Green: anonymous/token subject wins</text>
<text text-anchor="middle" x="1764" y="-736.4" font-family="Arial" font-size="12.00">Blue: assigned/logged&#45;in subject wins</text>
<text text-anchor="middle" x="1764" y="-723.4" font-family="Arial" font-size="12.00">Purple: merge + rotate token</text>
<text text-anchor="middle" x="1764" y="-710.4" font-family="Arial" font-size="12.00">Red: reject before subject resolution</text>
<text text-anchor="middle" x="1764" y="-683.4" font-family="Arial" font-size="12.00">Target&#45;local rule: add more rows only when docs require a more specific branch.</text>
</g>
</g>
</svg>
